<svg width="16" height="16" viewBox="0 0 16 16" version="1.1" xmlns="http://www.w3.org/2000/svg" xmlns:xlink="http://www.w3.org/1999/xlink">
  <style>
    use:not(:target) {
      display: none;
    }
  </style>
  <defs>
    <g id="standard_icon" stroke="none" stroke-width="1">
      <path clip-rule="evenodd" d="m8.49614.283505c-.30743-.175675-.68485-.175675-.99228.000001l-6 3.428574c-.31157.17804-.50386.50938-.50386.86824v1.41968c0 4 2.98667 9.0836 7 10 4.0133-.9164 7-6 7-10v-1.41968c0-.35886-.1923-.6902-.5039-.86824zm-.49614 1.216495-5.75 3.28571v1.2746c0 1.71749.65238 3.7522 1.78726 5.46629 1.07287 1.6204 2.47498 2.8062 3.96274 3.2425 1.48776-.4363 2.8899-1.6221 3.9627-3.2425 1.1349-1.71409 1.7873-3.7488 1.7873-5.46629v-1.2746z" fill-rule="evenodd" />
    </g>
    <g id="safer_icon" stroke="none" stroke-width="1">
      <path clip-rule="evenodd" d="m8.49614.283505c-.30743-.175675-.68485-.175675-.99228.000001l-6 3.428574c-.31157.17804-.50386.50938-.50386.86824v1.41968c0 4 2.98667 9.0836 7 10 4.0133-.9164 7-6 7-10v-1.41968c0-.35886-.1923-.6902-.5039-.86824zm-.49614 1.216495-5.75 3.28571v1.2746c0 1.71749.65238 3.7522 1.78726 5.46629 1.07287 1.6204 2.47498 2.8062 3.96274 3.2425 1.48776-.4363 2.8899-1.6221 3.9627-3.2425 1.1349-1.71409 1.7873-3.7488 1.7873-5.46629v-1.2746z" fill-rule="evenodd"/>
      <path d="m3.5 6.12062v-.40411c0-.08972.04807-.17255.12597-.21706l4-2.28572c.16666-.09523.37403.02511.37403.21707v10.0766c-1.01204-.408-2.054-1.3018-2.92048-2.6105-1.02134-1.54265-1.57952-3.34117-1.57952-4.77628z"/>
    </g>
    <g id="safest_icon" stroke="none" stroke-width="1">
      <path clip-rule="evenodd" d="m8.49614.283505c-.30743-.175675-.68485-.175675-.99228.000001l-6 3.428574c-.31157.17804-.50386.50938-.50386.86824v1.41968c0 4 2.98667 9.0836 7 10 4.0133-.9164 7-6 7-10v-1.41968c0-.35886-.1923-.6902-.5039-.86824zm-.49614 1.216495-5.75 3.28571v1.2746c0 1.71749.65238 3.7522 1.78726 5.46629 1.07287 1.6204 2.47498 2.8062 3.96274 3.2425 1.48776-.4363 2.8899-1.6221 3.9627-3.2425 1.1349-1.71409 1.7873-3.7488 1.7873-5.46629v-1.2746z" fill-rule="evenodd"/>
      <path d="m3.5 6.12062v-.40411c0-.08972.04807-.17255.12597-.21706l4.25-2.42857c.07685-.04392.17121-.04392.24806 0l4.24997 2.42857c.0779.04451.126.12734.126.21706v.40411c0 1.43511-.5582 3.23363-1.5795 4.77628-.8665 1.3087-1.90846 2.2025-2.9205 2.6105-1.01204-.408-2.054-1.3018-2.92048-2.6105-1.02134-1.54265-1.57952-3.34117-1.57952-4.77628z"/>
    </g>
    <g id="standard_custom_icon" stroke="none" stroke-width="1">
      <path d="m9.37255.784312-.87641-.500806c-.30743-.175676-.68485-.175676-.99228 0l-6 3.428574c-.31157.17804-.50386.50938-.50386.86824v1.41968c0 4 2.98667 9.0836 7 10 3.7599-.8585 6.6186-5.3745 6.9647-9.23043-.4008.20936-.8392.35666-1.3024.42914-.2132 1.43414-.8072 2.98009-1.6996 4.32789-1.0728 1.6204-2.47494 2.8062-3.9627 3.2425-1.48776-.4363-2.88987-1.6221-3.96274-3.2425-1.13488-1.71409-1.78726-3.7488-1.78726-5.46629v-1.2746l5.75-3.28571.86913.49664c.10502-.43392.27664-.84184.50342-1.212328z"/>
      <circle cx="13" cy="3" fill="#ffbd2e" r="3"/>
    </g>
    <g id="safer_custom_icon" stroke="none" stroke-width="1">
      <path d="m9.37255.784312-.87641-.500806c-.30743-.175676-.68485-.175676-.99228 0l-6 3.428574c-.31157.17804-.50386.50938-.50386.86824v1.41968c0 4 2.98667 9.0836 7 10 3.7599-.8585 6.6186-5.3745 6.9647-9.23043-.4008.20936-.8392.35666-1.3024.42914-.2132 1.43414-.8072 2.98009-1.6996 4.32789-1.0728 1.6204-2.47494 2.8062-3.9627 3.2425-1.48776-.4363-2.88987-1.6221-3.96274-3.2425-1.13488-1.71409-1.78726-3.7488-1.78726-5.46629v-1.2746l5.75-3.28571.86913.49664c.10502-.43392.27664-.84184.50342-1.212328z"/>
      <path d="m3.5 6.12062v-.40411c0-.08972.04807-.17255.12597-.21706l4-2.28572c.16666-.09523.37403.02511.37403.21707v10.0766c-1.01204-.408-2.054-1.3018-2.92048-2.6105-1.02134-1.54265-1.57952-3.34117-1.57952-4.77628z"/>
      <circle cx="13" cy="3" fill="#ffbd2e" r="3"/>
    </g>
    <g id="safest_custom_icon" stroke="none" stroke-width="1">
      <path d="m9.37255.784312-.87641-.500806c-.30743-.175676-.68485-.175676-.99228 0l-6 3.428574c-.31157.17804-.50386.50938-.50386.86824v1.41968c0 4 2.98667 9.0836 7 10 3.7599-.8585 6.6186-5.3745 6.9647-9.23043-.4008.20936-.8392.35666-1.3024.42914-.2132 1.43414-.8072 2.98009-1.6996 4.32789-1.0728 1.6204-2.47494 2.8062-3.9627 3.2425-1.48776-.4363-2.88987-1.6221-3.96274-3.2425-1.13488-1.71409-1.78726-3.7488-1.78726-5.46629v-1.2746l5.75-3.28571.86913.49664c.10502-.43392.27664-.84184.50342-1.212328z"/>
      <path d="m8.77266 3.44151-.64863-.37064c-.07685-.04392-.17121-.04392-.24806 0l-4.25 2.42857c-.0779.04451-.12597.12735-.12597.21706v.40412c0 1.4351.55818 3.23362 1.57952 4.77618.86648 1.3087 1.90844 2.2026 2.92048 2.6106 1.01204-.408 2.054-1.3018 2.9205-2.6106.7761-1.17217 1.2847-2.49215 1.4843-3.68816-1.9219-.26934-3.43158-1.82403-3.63214-3.76713z"/>
      <circle cx="13" cy="3" fill="#ffbd2e" r="3"/>
    </g>
  </defs>
  <use id="standard" fill="context-fill" fill-opacity="context-fill-opacity" href="#standard_icon" />
  <use id="safer" fill="context-fill" fill-opacity="context-fill-opacity" href="#safer_icon" />
  <use id="safest" fill="context-fill" fill-opacity="context-fill-opacity" href="#safest_icon" />
  <use id="standard_custom" fill="context-fill" fill-opacity="context-fill-opacity" href="#standard_custom_icon" />
  <use id="safer_custom" fill="context-fill" fill-opacity="context-fill-opacity" href="#safer_custom_icon" />
  <use id="safest_custom" fill="context-fill" fill-opacity="context-fill-opacity" href="#safest_custom_icon" />
</svg>
