<svg width="601" height="34" viewBox="0 0 601 34" fill="none" xmlns="http://www.w3.org/2000/svg">
<!-- NOTE: We use "context-fill white" and "context-fill #80EBFF", rather than
   - "white" or "#80EBFF" to allow about:mullvad-browser to set the wordmark
   - to a single specified color when using a contrast theme.
   - If context-fill is not set, this will default to the second color. -->
<g fill="context-fill white">
  <path d="M0 1.46332C0 1.1853 0.185367 1 0.463418 1H5.9614C6.33214 1 6.57918 1.12356 6.70254 1.46332L14.6716 19.4402H14.857L22.6718 1.46332C22.7955 1.15443 23.0425 1 23.4132 1H28.8185C29.0966 1 29.2819 1.1853 29.2819 1.46332V32.0425C29.2819 32.3206 29.0966 32.5059 28.8185 32.5059H23.5676C23.2895 32.5059 23.1042 32.3206 23.1042 32.0425V14.313H22.9188L17.0811 27.5947C16.8957 28.0271 16.6177 28.2125 16.2163 28.2125H13.0347C12.6333 28.2125 12.3552 28.0271 12.1699 27.5947L6.33214 14.313H6.14678V32.0425C6.14678 32.3206 5.96141 32.5059 5.68336 32.5059H0.463418C0.185367 32.5059 0 32.3206 0 32.0425V1.46332Z"/>
  <path d="M36.1389 20.9228V1.46332C36.1389 1.1853 36.3243 1 36.6023 1H42.4711C42.7491 1 42.9345 1.1853 42.9345 1.46332V21.1082C42.9345 24.8455 45.0349 26.9769 48.2161 26.9769C51.3667 26.9769 53.4364 24.8455 53.4364 21.1082V1.46332C53.4364 1.1853 53.6214 1 53.8995 1H59.7682C60.0462 1 60.2316 1.1853 60.2316 1.46332V20.9228C60.2316 28.7376 55.2277 33 48.1854 33C41.1428 33 36.1389 28.7376 36.1389 20.9228Z"/>
  <path d="M67.5519 1C67.2739 1 67.0889 1.1853 67.0889 1.46332V32.0118C67.0889 32.2895 67.2739 32.4749 67.5519 32.4749H88.0616C88.3397 32.4749 88.5251 32.2895 88.5251 32.0118V26.8842C88.5251 26.6062 88.3397 26.4208 88.0616 26.4208H74.1621C73.9768 26.4208 73.8841 26.3281 73.8841 26.1431V1.46332C73.8841 1.1853 73.6987 1 73.4207 1H67.5519Z"/>
  <path d="M93.4978 1.46332C93.4978 1.1853 93.6832 1 93.9612 1H99.8299C100.108 1 100.293 1.1853 100.293 1.46332V26.1431C100.293 26.3281 100.386 26.4208 100.571 26.4208H114.471C114.749 26.4208 114.934 26.6062 114.934 26.8842V32.0118C114.934 32.2895 114.749 32.4749 114.471 32.4749H93.9612C93.6832 32.4749 93.4978 32.2895 93.4978 32.0118V1.46332Z"/>
  <path d="M124.077 32.0118C124.17 32.2895 124.355 32.4749 124.664 32.4749H130.008C130.286 32.4749 130.471 32.2895 130.563 32.0118L140.571 1.49419C140.664 1.18533 140.478 1 140.2 1H134.239C133.93 1 133.745 1.15443 133.652 1.46332L127.536 22.1274H127.413L121.112 1.46332C121.019 1.12356 120.803 1 120.494 1H114.471C114.162 1 113.977 1.15443 114.069 1.49419L124.077 32.0118Z"/>
  <path fill-rule="evenodd" clip-rule="evenodd" d="M151.691 1.46332C151.783 1.1853 151.969 1 152.308 1H158.146C158.455 1 158.641 1.1853 158.733 1.46332L169.389 32.0425C169.482 32.3206 169.389 32.5059 169.08 32.5059H163.057C162.749 32.5059 162.532 32.3516 162.44 32.0425L160.648 26.5445H149.621L147.861 32.0425C147.768 32.3516 147.583 32.5059 147.243 32.5059H141.189C140.88 32.5059 140.787 32.3206 140.88 32.0425L151.691 1.46332ZM158.764 20.7375L155.212 9.71047H155.088L151.536 20.7375H158.764Z"/>
  <path fill-rule="evenodd" clip-rule="evenodd" d="M174.424 1C174.146 1 173.961 1.1853 173.961 1.46332V31.9808C173.961 32.2589 174.146 32.4442 174.424 32.4442H186.131C191.629 32.4442 195.49 30.0965 197.003 25.3706C197.559 23.61 197.837 21.8497 197.837 16.7221C197.837 11.5948 197.559 9.83416 197.003 8.07334C195.49 3.34749 191.629 1 186.131 1H174.424ZM184.617 26.4208H181.065C180.88 26.4208 180.787 26.3281 180.787 26.1738V7.36292C180.787 7.17758 180.88 7.0849 181.065 7.0849H184.617C187.768 7.0849 189.683 8.01157 190.455 10.5446C190.795 11.4711 190.98 12.6757 190.98 16.7531C190.98 20.8301 190.764 22.0347 190.455 22.9615C189.652 25.4943 187.768 26.4208 184.617 26.4208Z"/>
  <path fill-rule="evenodd" clip-rule="evenodd" d="M270.813 31.0235C272.821 32.3412 275.111 33 277.683 33C280.288 33 282.578 32.3412 284.553 31.0235C286.531 29.7059 288.082 27.8391 289.212 25.4236C290.342 23.008 290.906 20.153 290.906 16.8589C290.906 13.5648 290.342 10.7413 289.212 8.3882C288.082 6.00388 286.531 4.18431 284.553 2.9294C282.578 1.64311 280.288 1 277.683 1C275.111 1 272.821 1.64311 270.813 2.9294C268.835 4.18431 267.284 6.00388 266.154 8.3882C265.057 10.7413 264.507 13.5648 264.507 16.8589C264.507 20.153 265.057 23.008 266.154 25.4236C267.284 27.8391 268.835 29.7059 270.813 31.0235ZM282.482 27.9647C281.133 29 279.536 29.5177 277.683 29.5177C275.864 29.5177 274.263 29 272.884 27.9647C271.502 26.9294 270.435 25.4706 269.683 23.5883C268.931 21.6745 268.553 19.4316 268.553 16.8589C268.553 14.3177 268.931 12.1216 269.683 10.2707C270.435 8.41954 271.502 6.99211 272.884 5.98821C274.263 4.95292 275.864 4.43527 277.683 4.43527C279.536 4.43527 281.133 4.95292 282.482 5.98821C283.864 6.99211 284.931 8.41954 285.683 10.2707C286.435 12.1216 286.813 14.3177 286.813 16.8589C286.813 19.4316 286.435 21.6745 285.683 23.5883C284.931 25.4706 283.864 26.9294 282.482 27.9647Z"/>
  <path fill-rule="evenodd" clip-rule="evenodd" d="M211.837 32.435V1.56445H221.014C223.084 1.56445 224.92 1.81542 226.518 2.31739C228.119 2.81936 229.358 3.63503 230.237 4.76444C231.148 5.86246 231.602 7.3056 231.602 9.09382C231.602 10.694 231.211 12.1057 230.426 13.3293C229.673 14.5213 228.56 15.3528 227.085 15.8234V16.0116C229.03 16.3566 230.568 17.141 231.695 18.3645C232.825 19.5566 233.392 21.188 233.392 23.2586C233.392 25.3292 232.888 27.0389 231.884 28.388C230.913 29.7371 229.547 30.7565 227.791 31.4468C226.034 32.1056 223.994 32.435 221.673 32.435H211.837ZM215.743 14.694H220.308C222.943 14.694 224.841 14.239 226.001 13.3293C227.161 12.4196 227.745 11.1801 227.745 9.61147C227.745 7.79186 227.131 6.52128 225.909 5.79973C224.684 5.04679 222.88 4.67032 220.496 4.67032H215.743V14.694ZM215.743 29.3292H221.108C223.774 29.3292 225.846 28.843 227.32 27.8704C228.795 26.8666 229.531 25.3292 229.531 23.2586C229.531 21.3448 228.808 19.9489 227.367 19.0704C225.925 18.1607 223.837 17.7057 221.108 17.7057H215.743V29.3292Z"/>
  <path fill-rule="evenodd" clip-rule="evenodd" d="M239.502 32.4353V1.5647H249.149C251.251 1.5647 253.12 1.84705 254.75 2.41175C256.381 2.94507 257.65 3.85486 258.561 5.14115C259.502 6.39605 259.973 8.09016 259.973 10.2236C259.973 12.2942 259.502 14.0039 258.561 15.353C257.65 16.7021 256.381 17.7215 254.75 18.4118C254.205 18.6321 253.633 18.8156 253.035 18.9623L260.868 32.4353H256.444L249.014 19.4001H243.41V32.4353H239.502ZM243.41 16.2001H248.586C251.002 16.2001 252.851 15.7139 254.137 14.7413C255.423 13.7375 256.066 12.2316 256.066 10.2236C256.066 8.21563 255.423 6.80387 254.137 5.9882C252.851 5.14115 251.002 4.71762 248.586 4.71762H243.41V16.2001Z"/>
  <path d="M300.516 32.4353L294.117 1.5647H298.302L301.457 18.3648C301.772 20.0274 302.067 21.6904 302.352 23.353C302.634 25.0156 302.899 26.7256 303.151 28.4824H303.34C303.655 26.7256 303.983 25.0156 304.327 23.353C304.516 22.5217 304.704 21.6903 304.892 20.8589C305.08 20.0275 305.268 19.1961 305.457 18.3648L309.646 1.5647H313.597L317.646 18.3648C318.021 19.9962 318.398 21.6589 318.773 23.353C319.151 25.0156 319.512 26.7256 319.857 28.4824H320.046C320.297 26.7256 320.562 25.0156 320.844 23.353C320.985 22.5217 321.127 21.6903 321.268 20.8589C321.41 20.0275 321.552 19.1961 321.693 18.3648L324.94 1.5647H328.94L322.491 32.4353H317.457L313.033 13.8942C312.907 13.3131 312.782 12.732 312.657 12.151C312.532 11.5713 312.407 10.9916 312.281 10.4119C312.062 9.21957 311.84 7.96466 311.621 6.64702H311.433C311.244 7.96466 311.025 9.21957 310.773 10.4119C310.554 11.5728 310.319 12.7333 310.067 13.8942L305.55 32.4353H300.516Z"/>
  <path d="M336.529 31.7765C338.349 32.592 340.357 33 342.551 33C344.718 33 346.584 32.6079 348.152 31.8235C349.752 31.0391 350.959 29.9882 351.777 28.6706C352.622 27.3215 353.046 25.8315 353.046 24.2C353.046 22.6942 352.765 21.4236 352.198 20.3883C351.664 19.353 350.912 18.4904 349.941 17.8001C349 17.1098 347.916 16.498 346.693 15.9648L342.316 14.0824C341.5 13.706 340.685 13.3139 339.87 12.906C339.085 12.498 338.442 11.9804 337.941 11.353C337.438 10.7257 337.189 9.92555 337.189 8.9529C337.189 7.57253 337.706 6.47447 338.74 5.6588C339.807 4.84313 341.202 4.43527 342.929 4.43527C344.307 4.43527 345.58 4.70195 346.74 5.23527C347.9 5.73724 348.967 6.41173 349.941 7.25879L352.059 4.71763C350.992 3.6196 349.673 2.72549 348.105 2.03529C346.538 1.34509 344.811 1 342.929 1C341.046 1 339.366 1.36076 337.895 2.08235C336.45 2.77255 335.307 3.74507 334.458 4.99998C333.643 6.2235 333.235 7.61958 333.235 9.18819C333.235 10.6942 333.547 11.9648 334.177 13.0001C334.803 14.0039 335.588 14.8354 336.529 15.4942C337.5 16.153 338.488 16.7022 339.492 17.1413L343.916 19.0707C344.891 19.5098 345.752 19.9492 346.505 20.3883C347.29 20.8274 347.9 21.361 348.341 21.9883C348.811 22.6156 349.046 23.4627 349.046 24.5295C349.046 26.0353 348.483 27.2589 347.353 28.2C346.223 29.1097 344.639 29.5647 342.601 29.5647C340.967 29.5647 339.383 29.2353 337.845 28.5765C336.341 27.9177 335.038 27.008 333.941 25.8471L331.728 28.3883C333.109 29.8 334.71 30.9294 336.529 31.7765Z"/>
  <path d="M359.124 32.4353V1.5647H376.914V4.8588H363.031V14.553H374.749V17.8942H363.031V29.0941H377.384V32.4353H359.124Z"/>
  <path fill-rule="evenodd" clip-rule="evenodd" d="M383.942 1.5647V32.4353H387.846V19.4001H393.451L400.883 32.4353H405.304L397.471 18.9624C398.069 18.8158 398.641 18.6322 399.187 18.4118C400.82 17.7215 402.09 16.7021 403.001 15.353C403.942 14.0039 404.413 12.2942 404.413 10.2236C404.413 8.09016 403.942 6.39605 403.001 5.14115C402.09 3.85486 400.82 2.94507 399.187 2.41175C397.556 1.84705 395.69 1.5647 393.589 1.5647H383.942ZM393.023 16.2001H387.846V4.71762H393.023C395.439 4.71762 397.291 5.14115 398.577 5.9882C399.863 6.80387 400.506 8.21563 400.506 10.2236C400.506 12.2316 399.863 13.7375 398.577 14.7413C397.291 15.7139 395.439 16.2001 393.023 16.2001Z"/>
</g>
<g fill="context-fill #80EBFF">
  <path d="M472.399 31.5743C474.695 32.8029 477.282 33.4173 480.159 33.4173C482.358 33.4173 484.347 33.0616 486.125 32.3503C487.853 31.6404 489.243 30.7833 490.293 29.779C490.389 29.6873 490.441 29.5598 490.441 29.4272V15.8268C490.441 15.5506 490.218 15.3268 489.941 15.3268H479.641C479.365 15.3268 479.141 15.5506 479.141 15.8268V20.0648C479.141 20.3409 479.365 20.5648 479.641 20.5648H484.267C484.543 20.5648 484.767 20.7886 484.767 21.0648V26.4812C484.767 26.6347 484.698 26.7811 484.571 26.8684C484.151 27.1593 483.634 27.4023 483.021 27.5973C482.31 27.7913 481.566 27.8883 480.79 27.8883C478.753 27.8883 477.039 27.4518 475.649 26.5788C474.291 25.7058 473.256 24.4609 472.545 22.8443C471.866 21.1953 471.526 19.2229 471.526 16.9273C471.526 14.6963 471.898 12.7724 472.642 11.1558C473.386 9.5391 474.42 8.29426 475.746 7.42126C477.072 6.54826 478.607 6.11176 480.353 6.11176C481.776 6.11176 482.972 6.3381 483.942 6.79076C484.754 7.14249 485.498 7.60743 486.174 8.18556C486.39 8.37084 486.718 8.35754 486.906 8.14303L489.658 4.99826C489.827 4.80454 489.823 4.51294 489.639 4.3328C488.655 3.36898 487.435 2.52313 485.979 1.79526C484.363 0.986929 482.423 0.582764 480.159 0.582764C478.058 0.582764 476.085 0.954596 474.242 1.69826C472.399 2.44193 470.783 3.5251 469.392 4.94776C468.002 6.37043 466.903 8.11643 466.094 10.1858C465.318 12.2228 464.93 14.5508 464.93 17.1698C464.93 20.6941 465.593 23.6688 466.919 26.0938C468.277 28.5188 470.104 30.3456 472.399 31.5743Z"/>
  <path d="M498.222 32.8353C497.946 32.8353 497.722 32.6114 497.722 32.3353V1.66479C497.722 1.38865 497.946 1.16479 498.222 1.16479H503.624C503.901 1.16479 504.124 1.38865 504.124 1.66479V13.1293C504.124 13.4054 504.348 13.6293 504.624 13.6293H515.507C515.783 13.6293 516.007 13.4054 516.007 13.1293V1.6648C516.007 1.38865 516.231 1.16479 516.507 1.16479H521.86C522.137 1.16479 522.36 1.38865 522.36 1.66479V32.3353C522.36 32.6114 522.137 32.8353 521.86 32.8353H516.507C516.231 32.8353 516.007 32.6114 516.007 32.3353V19.7068C516.007 19.4307 515.783 19.2068 515.507 19.2068H504.624C504.348 19.2068 504.124 19.4307 504.124 19.7068V32.3353C504.124 32.6114 503.901 32.8353 503.624 32.8353H498.222Z"/>
  <path d="M536.924 32.3353C536.924 32.6114 537.148 32.8353 537.424 32.8353H542.777C543.054 32.8353 543.277 32.6114 543.277 32.3353V7.0483C543.277 6.77215 543.501 6.5483 543.777 6.5483H551.75C552.026 6.5483 552.25 6.32444 552.25 6.0483V1.66479C552.25 1.38865 552.026 1.16479 551.75 1.16479H528.451C528.175 1.16479 527.951 1.38865 527.951 1.66479V6.0483C527.951 6.32444 528.175 6.5483 528.451 6.5483H536.424C536.7 6.5483 536.924 6.77215 536.924 7.0483V32.3353Z"/>
  <path d="M558.332 32.8353C558.056 32.8353 557.832 32.6114 557.832 32.3353V1.66479C557.832 1.38865 558.056 1.16479 558.332 1.16479H563.734C564.01 1.16479 564.234 1.38865 564.234 1.66479V26.9518C564.234 27.2279 564.458 27.4518 564.734 27.4518H576.538C576.814 27.4518 577.038 27.6757 577.038 27.9518V32.3353C577.038 32.6114 576.814 32.8353 576.538 32.8353H558.332Z"/>
  <path d="M584.817 32.8353C584.541 32.8353 584.317 32.6114 584.317 32.3353V21.4044C584.317 21.3306 584.301 21.2577 584.269 21.1909L575.148 1.87832C574.991 1.54664 575.233 1.16479 575.6 1.16479H581.315C581.517 1.16479 581.7 1.28714 581.777 1.47457L584.802 8.8278C585.222 10.0241 585.643 11.1881 586.063 12.3198C586.505 13.4237 586.962 14.5738 587.434 15.7701C587.455 15.8245 587.508 15.8603 587.567 15.8603C587.625 15.8603 587.678 15.8245 587.699 15.7701C588.172 14.5738 588.629 13.4237 589.07 12.3198C589.555 11.1881 590.024 10.0241 590.477 8.8278L593.454 1.47708C593.531 1.28832 593.714 1.16479 593.918 1.16479H599.483C599.85 1.16479 600.092 1.54746 599.934 1.87921L590.767 21.1905C590.736 21.2575 590.719 21.3308 590.719 21.4049V32.3353C590.719 32.6114 590.495 32.8353 590.219 32.8353H584.817Z"/>
  <path d="M452.369 32.8353C452.093 32.8353 451.869 32.6114 451.869 32.3353V1.66479C451.869 1.38865 452.093 1.16479 452.369 1.16479H457.771C458.048 1.16479 458.271 1.38865 458.271 1.66479V32.3353C458.271 32.6114 458.048 32.8353 457.771 32.8353H452.369Z"/>
  <path d="M419.304 32.3353C419.304 32.6114 419.528 32.8353 419.804 32.8353H424.915C425.192 32.8353 425.415 32.6114 425.415 32.3353V20.2738C425.415 18.4308 425.318 16.5393 425.124 14.5993C424.935 12.7052 424.746 10.9343 424.556 9.28678C424.549 9.22309 424.599 9.1673 424.663 9.1673C424.707 9.1673 424.747 9.19463 424.763 9.23604C425.24 10.4735 425.749 11.6955 426.288 12.9018C426.838 14.1305 427.388 15.2783 427.937 16.3453L436.623 32.5713C436.71 32.7338 436.88 32.8353 437.064 32.8353H443.103C443.379 32.8353 443.603 32.6114 443.603 32.3353V1.66479C443.603 1.38865 443.379 1.16479 443.103 1.16479H437.992C437.716 1.16479 437.492 1.38865 437.492 1.66479V13.7263C437.492 15.5046 437.573 17.38 437.734 19.3523C437.924 21.2475 438.098 23.0348 438.257 24.714C438.263 24.7778 438.213 24.8328 438.149 24.8328C438.104 24.8328 438.063 24.8051 438.047 24.7631C437.57 23.5265 437.078 22.3211 436.57 21.1468C436.053 19.9181 435.503 18.7703 434.921 17.7033L426.284 1.43038C426.197 1.26696 426.027 1.16479 425.842 1.16479H419.804C419.528 1.16479 419.304 1.38865 419.304 1.66479V32.3353Z"/>
</g>
</svg>
