<svg width="400" height="32" viewBox="0 0 400 32" xmlns="http://www.w3.org/2000/svg">
<path d="M0 0.450722C0 0.180263 0.180328 0 0.45082 0H5.79934C6.16 0 6.40033 0.120198 6.52033 0.450722L14.2728 17.9389H14.4531L22.0554 0.450722C22.1757 0.15023 22.4161 0 22.7767 0H28.0351C28.3056 0 28.4859 0.180263 28.4859 0.450722V30.1986C28.4859 30.4691 28.3056 30.6494 28.0351 30.6494H22.9269C22.6564 30.6494 22.4761 30.4691 22.4761 30.1986V12.951H22.2957L16.6167 25.8717C16.4364 26.2924 16.1659 26.4727 15.7754 26.4727H12.6803C12.2898 26.4727 12.0193 26.2924 11.839 25.8717L6.16 12.951H5.97967V30.1986C5.97967 30.4691 5.79935 30.6494 5.52886 30.6494H0.45082C0.180328 30.6494 0 30.4691 0 30.1986V0.450722Z" fill="context-fill black"/>
<path d="M35.1564 19.3812V0.450722C35.1564 0.180263 35.3367 0 35.6072 0H41.3164C41.5869 0 41.7672 0.180263 41.7672 0.450722V19.5615C41.7672 23.1973 43.8105 25.2707 46.9053 25.2707C49.9702 25.2707 51.9836 23.1973 51.9836 19.5615V0.450722C51.9836 0.180263 52.1636 0 52.4341 0H58.1433C58.4138 0 58.5941 0.180263 58.5941 0.450722V19.3812C58.5941 26.9835 53.7262 31.1301 46.8754 31.1301C40.0243 31.1301 35.1564 26.9835 35.1564 19.3812Z" fill="context-fill black"/>
<path d="M65.2649 0.450722C65.2649 0.180263 65.4449 0 65.7154 0H71.4246C71.6951 0 71.8754 0.180263 71.8754 0.450722V24.4596C71.8754 24.6396 71.9656 24.7297 72.1459 24.7297H85.6675C85.938 24.7297 86.1184 24.9101 86.1184 25.1806V30.1688C86.1184 30.4389 85.938 30.6192 85.6675 30.6192H65.7154C65.4449 30.6192 65.2649 30.4389 65.2649 30.1688V0.450722Z" fill="context-fill black"/>
<path d="M90.9561 0.450722C90.9561 0.180263 91.1364 0 91.4069 0H97.1161C97.3862 0 97.5666 0.180263 97.5666 0.450722V24.4596C97.5666 24.6396 97.6567 24.7297 97.8371 24.7297H111.359C111.629 24.7297 111.81 24.9101 111.81 25.1806V30.1688C111.81 30.4389 111.629 30.6192 111.359 30.6192H91.4069C91.1364 30.6192 90.9561 30.4389 90.9561 30.1688V0.450722Z" fill="context-fill black"/>
<path d="M121.275 30.6192C120.974 30.6192 120.794 30.4389 120.704 30.1688L110.968 0.480754C110.878 0.15023 111.058 0 111.359 0H117.218C117.519 0 117.729 0.120198 117.819 0.450722L123.949 20.553H124.069L130.019 0.450722C130.109 0.15023 130.289 0 130.59 0H136.389C136.659 0 136.84 0.180295 136.75 0.480754L127.014 30.1688C126.924 30.4389 126.744 30.6192 126.473 30.6192H121.275Z" fill="context-fill black"/>
<path d="M147.567 0.450722C147.657 0.180263 147.837 0 148.168 0H153.847C154.148 0 154.328 0.180263 154.418 0.450722L164.785 30.1986C164.875 30.4691 164.785 30.6494 164.484 30.6494H158.625C158.324 30.6494 158.114 30.4992 158.024 30.1986L156.281 24.8501H145.554L143.841 30.1986C143.751 30.4992 143.571 30.6494 143.24 30.6494H137.351C137.05 30.6494 136.96 30.4691 137.05 30.1986L147.567 0.450722ZM154.448 19.2009L150.992 8.47367H150.872L147.417 19.2009H154.448Z" fill="context-fill black"/>
<path d="M169.232 0.450722C169.232 0.180263 169.412 0 169.682 0H181.071C186.419 0 190.175 2.28367 191.648 6.88105C192.189 8.594 192.459 10.3068 192.459 15.2947C192.459 20.2829 192.189 21.9953 191.648 23.7081C190.175 28.3055 186.419 30.5894 181.071 30.5894H169.682C169.412 30.5894 169.232 30.4091 169.232 30.1386V0.450722ZM176.143 24.7297H179.598C182.663 24.7297 184.496 23.8284 185.277 21.3645C185.578 20.4629 185.788 19.291 185.788 15.3248C185.788 11.3583 185.608 10.1865 185.277 9.28515C184.526 6.82095 182.663 5.91947 179.598 5.91947H176.143C175.963 5.91947 175.872 6.00964 175.872 6.18994V24.4894C175.872 24.6396 175.963 24.7297 176.143 24.7297Z" fill="context-fill black"/>
<path d="M208.459 31.1005V0.558716H217.538C219.586 0.558716 221.402 0.807012 222.984 1.30363C224.567 1.80026 225.793 2.60724 226.662 3.72462C227.564 4.81095 228.013 6.23872 228.013 8.0079C228.013 9.59101 227.626 10.9877 226.849 12.1982C226.105 13.3776 225.003 14.2002 223.544 14.6658V14.852C225.469 15.1933 226.99 15.9694 228.105 17.1799C229.223 18.3592 229.784 19.9733 229.784 22.0218C229.784 24.0704 229.285 25.7618 228.292 27.0966C227.331 28.4313 225.98 29.4399 224.243 30.1228C222.505 30.7746 220.486 31.1005 218.19 31.1005H208.459ZM212.323 13.5484H216.839C219.447 13.5484 221.324 13.0982 222.472 12.1982C223.62 11.2982 224.197 10.072 224.197 8.52003C224.197 6.7198 223.59 5.46275 222.38 4.74888C221.169 4.00396 219.384 3.6315 217.026 3.6315H212.323V13.5484ZM212.323 28.0277H217.631C220.269 28.0277 222.318 27.5467 223.777 26.5845C225.236 25.5913 225.964 24.0704 225.964 22.0218C225.964 20.1284 225.249 18.7474 223.823 17.8782C222.397 16.9782 220.331 16.5281 217.631 16.5281H212.323V28.0277Z" fill="context-fill black"/>
<path d="M235.83 31.1005V0.558716H245.374C247.452 0.558716 249.302 0.83806 250.915 1.39675C252.528 1.92439 253.784 2.82449 254.685 4.09708C255.616 5.33862 256.082 7.01468 256.082 9.12544C256.082 11.174 255.616 12.8654 254.685 14.2002C253.784 15.5349 252.528 16.5435 250.915 17.2264C249.302 17.8782 247.452 18.2041 245.374 18.2041H239.695V31.1005H235.83ZM239.695 15.0382H244.816C247.207 15.0382 249.036 14.5572 250.308 13.5949C251.58 12.6018 252.216 11.112 252.216 9.12544C252.216 7.13881 251.58 5.74209 250.308 4.93511C249.036 4.09708 247.207 3.67806 244.816 3.67806H239.695V15.0382ZM252.59 31.1005L244.63 17.1333L247.656 15.0848L256.967 31.1005H252.59Z" fill="context-fill black"/>
<path d="M273.603 31.6592C271.059 31.6592 268.793 31.0074 266.807 29.7038C264.849 28.4002 263.315 26.5533 262.197 24.1634C261.112 21.7736 260.567 18.949 260.567 15.69C260.567 12.431 261.112 9.63754 262.197 7.30951C263.315 4.95059 264.849 3.15039 266.807 1.90885C268.793 0.636262 271.059 0 273.603 0C276.18 0 278.446 0.636262 280.4 1.90885C282.357 3.15039 283.892 4.95059 285.01 7.30951C286.128 9.63754 286.685 12.431 286.685 15.69C286.685 18.949 286.128 21.7736 285.01 24.1634C283.892 26.5533 282.357 28.4002 280.4 29.7038C278.446 31.0074 276.18 31.6592 273.603 31.6592ZM273.603 28.2139C275.436 28.2139 277.016 27.7018 278.351 26.6775C279.718 25.6533 280.774 24.21 281.518 22.3477C282.262 20.4543 282.636 18.2352 282.636 15.69C282.636 13.1759 282.262 11.0031 281.518 9.17197C280.774 7.34052 279.718 5.92829 278.351 4.93508C277.016 3.91082 275.436 3.39869 273.603 3.39869C271.803 3.39869 270.22 3.91082 268.856 4.93508C267.489 5.92829 266.433 7.34052 265.689 9.17197C264.944 11.0031 264.571 13.1759 264.571 15.69C264.571 18.2352 264.944 20.4543 265.689 22.3477C266.433 24.21 267.489 25.6533 268.856 26.6775C270.22 27.7018 271.803 28.2139 273.603 28.2139Z" fill="context-fill black"/>
<path d="M296.193 31.1005L289.862 0.558716H294.003L297.125 17.1799C297.436 18.8248 297.728 20.47 298.01 22.1149C298.289 23.7599 298.551 25.4517 298.8 27.1897H298.987C299.298 25.4517 299.623 23.7599 299.964 22.1149C300.338 20.47 300.708 18.8248 301.082 17.1799L305.226 0.558716H309.134L313.141 17.1799C313.512 18.794 313.885 20.4389 314.256 22.1149C314.63 23.7599 314.987 25.4517 315.328 27.1897H315.515C315.764 25.4517 316.026 23.7599 316.305 22.1149C316.584 20.47 316.866 18.8248 317.144 17.1799L320.357 0.558716H324.315L317.934 31.1005H312.954L308.577 12.7569C308.328 11.6084 308.082 10.4602 307.833 9.31167C307.616 8.13206 307.397 6.89052 307.18 5.58691H306.993C306.807 6.89052 306.59 8.13206 306.341 9.31167C306.125 10.4602 305.892 11.6084 305.643 12.7569L301.174 31.1005H296.193Z" fill="context-fill black"/>
<path d="M337.78 31.6592C335.61 31.6592 333.623 31.2556 331.823 30.4487C330.023 29.6107 328.439 28.4933 327.072 27.0966L329.262 24.5825C330.348 25.731 331.636 26.631 333.125 27.2828C334.646 27.9346 336.213 28.2605 337.829 28.2605C339.846 28.2605 341.413 27.8103 342.531 26.9103C343.649 25.9792 344.207 24.7687 344.207 23.2789C344.207 22.2234 343.974 21.3854 343.508 20.7648C343.072 20.1441 342.469 19.6162 341.692 19.1818C340.948 18.7474 340.095 18.3126 339.131 17.8782L334.754 15.9693C333.761 15.5349 332.784 14.9916 331.823 14.3398C330.892 13.688 330.115 12.8654 329.495 11.8723C328.872 10.848 328.564 9.59098 328.564 8.10098C328.564 6.54908 328.967 5.16787 329.774 3.95738C330.613 2.71584 331.744 1.75367 333.174 1.07082C334.63 0.356918 336.292 0 338.154 0C340.016 0 341.725 0.34141 343.275 1.02426C344.826 1.70712 346.131 2.5917 347.187 3.67803L345.092 6.19213C344.128 5.3541 343.072 4.68679 341.925 4.19016C340.777 3.66252 339.518 3.39869 338.154 3.39869C336.446 3.39869 335.066 3.8022 334.01 4.60918C332.987 5.41616 332.475 6.50253 332.475 7.8682C332.475 8.83049 332.721 9.62213 333.22 10.2428C333.715 10.8634 334.351 11.3756 335.128 11.7792C335.934 12.1828 336.741 12.5707 337.548 12.9431L341.879 14.8054C343.089 15.333 344.161 15.9382 345.092 16.6211C346.052 17.3041 346.797 18.1575 347.325 19.1818C347.885 20.2061 348.164 21.4631 348.164 22.953C348.164 24.567 347.744 26.0411 346.908 27.3759C346.098 28.6795 344.905 29.7192 343.321 30.4952C341.77 31.2713 339.925 31.6592 337.78 31.6592Z" fill="context-fill black"/>
<path d="M354.177 31.1005V0.558716H371.777V3.81773H358.043V13.4087H369.636V16.7143H358.043V27.7949H372.243V31.1005H354.177Z" fill="context-fill black"/>
<path d="M378.731 31.1005V0.558716H388.275C390.354 0.558716 392.2 0.83806 393.813 1.39675C395.43 1.92439 396.685 2.82449 397.587 4.09708C398.518 5.33862 398.984 7.01468 398.984 9.12544C398.984 11.174 398.518 12.8654 397.587 14.2002C396.685 15.5349 395.43 16.5435 393.813 17.2264C392.2 17.8782 390.354 18.2041 388.275 18.2041H382.594V31.1005H378.731ZM382.594 15.0382H387.715C390.105 15.0382 391.938 14.5572 393.21 13.5949C394.482 12.6018 395.118 11.112 395.118 9.12544C395.118 7.13881 394.482 5.74209 393.21 4.93511C391.938 4.09708 390.105 3.67806 387.715 3.67806H382.594V15.0382ZM395.492 31.1005L387.528 17.1333L390.554 15.0848L399.866 31.1005H395.492Z" fill="context-fill black"/>
</svg>
