<?xml version="1.0" encoding="UTF-8"?>
<svg width="16px" height="16px" viewBox="0 0 16 16" version="1.1" xmlns="http://www.w3.org/2000/svg" xmlns:xlink="http://www.w3.org/1999/xlink">
    <g fill="context-fill" fill-opacity="context-fill-opacity">
        <path d="m13.5383 14.5627c-.1712-.0053-.3194-.1334-.3505-.3028-.0419-.294-.1441-.5789-.3001-.8369-.2583-.1558-.5436-.2579-.838-.2998-.1694-.0313-.2974-.1793-.3026-.3501-.0053-.1708.1136-.3146.2813-.3402.2944-.0329.5762-.1254.8284-.272.1426-.2476.2313-.5243.2608-.8129.0237-.1679.1662-.2884.3372-.2851.1699.0042.3181.1295.3517.2973.0471.2931.1533.5763.312.8323.2565.1573.5396.263.8326.3109.1682.0345.2929.1836.2958.3536.0028.17-.1171.3116-.2843.3357-.2894.0285-.5669.1172-.8147.2604-.1462.2521-.2386.5335-.2717.8274-.025.167-.1675.2861-.3379.2822z"/>
        <path d="m6.49858 2.99992c-.14675-.00459-.27377-.11436-.3004-.25961-.03593-.25196-.12354-.49621-.25729-.71731-.22137-.13358-.46594-.22109-.71822-.25699-.14526-.02682-.25492-.15363-.25945-.30004-.00454-.14641.09737-.26967.24112-.29164.25236-.02817.49393-.10747.71013-.233093.12217-.2123.19825-.449454.22353-.696834.0203-.143878.14242-.24714456.28897-.24434753.14565.00358504.27273.11100153.30149.25484453.0404.251183.13139.493923.2674.713349.21988.134841.46256.225461.71364.266481.14417.02957.25114.15744.25358.30313.00244.1457-.10035.26707-.24368.28774-.2481.02441-.48592.10041-.69835.22319-.1253.2161-.20449.45729-.23284.7092-.0214.14312-.14361.24521-.28963.24193z"/>
        <path d="m1.82093 5.3609c-.15279-.00473-.28512-.11875-.31315-.26981-.02739-.18014-.08781-.35525-.1782-.51643-.16152-.09021-.336989-.15052-.517512-.17788-.151437-.02794-.265749-.16003-.270474-.31254-.004724-.15251.101518-.2809.251381-.30378.181146-.02145.355265-.07593.513815-.16075.08209-.15545.13363-.32622.15197-.50355.02095-.15059.14903-.25861.3025-.25512.15164.00368.28404.11525.31428.26484.03021.18029.09338.35503.18632.51538.16048.09192.33508.15452.51517.18469.1503.0308.26181.164.26435.31577.00254.15176-.10462.27819-.25404.29971-.17764.01914-.34855.07141-.50396.15412-.08502.1582-.13963.33194-.16114.5127-.022.14911-.14912.25571-.30131.25265z"/>
        <path clip-rule="evenodd" d="m15.3213 1.06694c.2441-.244076.2441-.639804 0-.883882-.2441-.2440775-.6398-.2440774-.8839 0l-5.96506 5.965062h-.50519c-1.996-1.09517-4.49023.42233-6.49079 1.63948-.41545.25277-.80961.49258-1.173597.69335-.16756.10002-.289261.26641-.30145394.48048-.01219156.21407.06079654.41038.21802994.56743l1.243691 1.24224 2.37084-1.02603c.15392-.06661.30331.14022.18601.25753l-1.66213 1.6621 1.46329 1.4616 1.66126-1.6613c.1173-.1173.32413.0321.25752.186l-1.02482 2.3682 1.25462 1.2531c.15724.157.35379.23.56815.2178.19095-.0561.35851-.1561.45869-.3234.20012-.3592.43577-.7455.68321-1.1511 1.22241-2.0039 2.73233-4.47901 1.66484-6.47533v-.49654zm-7.46715 6.55077c1.12692 1.12692.64113 2.69369-.05278 3.70149h-.50137l-3.13-3.1492v-.5c1.00858-.68566 2.56556-1.17088 3.68415-.05229z" fill-rule="evenodd"/>
    </g>
</svg>
