<svg width="48" height="48" viewBox="0 0 48 48" fill="none" xmlns="http://www.w3.org/2000/svg">
<g clip-path="url(#clip0_362_4868)">
<path d="M0 4.6875C0 2.09867 2.09867 0 4.6875 0H43.3125C45.9013 0 48 2.09867 48 4.6875V43.3125C48 45.9013 45.9013 48 43.3125 48H4.6875C2.09867 48 0 45.9013 0 43.3125V4.6875Z" fill="url(#paint0_linear_362_4868)"/>
<path d="M14.25 6.32812H7.125V41.4844H14.25V23.1094L19.125 32.3906H28.875L33.75 23.1094V41.4844H40.875V6.32812H33.75L24 24.7969L14.25 6.32812Z" fill="url(#paint1_radial_362_4868)"/>
<path d="M14.25 10.0781H7.125V41.4844H14.25V23.1094L19.125 32.3906H28.875L33.75 23.1094V41.4844H40.875V10.0781H33.75L24 28.5469L14.25 10.0781Z" fill="url(#paint2_linear_362_4868)"/>
<path d="M14.25 13.3594H7.125V41.4844H14.25V23.1094L19.125 32.3906H28.875L33.75 23.1094V41.4844H40.875V13.3594H33.75L24 31.7344L14.25 13.3594Z" fill="url(#paint3_linear_362_4868)"/>
</g>
<defs>
<linearGradient id="paint0_linear_362_4868" x1="24" y1="0" x2="24" y2="48" gradientUnits="userSpaceOnUse">
<stop offset="0.134879" stop-color="#03042A"/>
<stop offset="0.667117" stop-color="#0B475B"/>
<stop offset="1" stop-color="#0E958E"/>
</linearGradient>
<radialGradient id="paint1_radial_362_4868" cx="0" cy="0" r="1" gradientUnits="userSpaceOnUse" gradientTransform="translate(24 28.6406) rotate(-90) scale(23.1562 23.1322)">
<stop stop-color="#3A4E80"/>
<stop offset="0.692788" stop-color="#288B8A"/>
<stop offset="1" stop-color="#297F71"/>
</radialGradient>
<linearGradient id="paint2_linear_362_4868" x1="48.1529" y1="13.9384" x2="7.30035" y2="34.281" gradientUnits="userSpaceOnUse">
<stop stop-color="#10BC94"/>
<stop offset="0.744792" stop-color="#0C9DA7"/>
<stop offset="1" stop-color="#059465"/>
</linearGradient>
<linearGradient id="paint3_linear_362_4868" x1="66.2514" y1="9.46489" x2="4.67472" y2="36.2494" gradientUnits="userSpaceOnUse">
<stop stop-color="#D59C14"/>
<stop offset="0.140625" stop-color="#24FFD3"/>
<stop offset="1" stop-color="#06BC7F"/>
</linearGradient>
<clipPath id="clip0_362_4868">
<rect width="48" height="48" rx="4.6875" fill="white"/>
</clipPath>
</defs>
</svg>
