<svg width="559" height="32" viewBox="0 0 559 32" fill="none" xmlns="http://www.w3.org/2000/svg">
<!-- NOTE: We use "context-fill white" and "context-fill #87FFD1", rather than
   - "white" or "#87FFD1" to allow about:mullvad-browser to set the wordmark
   - to a single specified color when using a contrast theme.
   - If context-fill is not set, this will default to the second color. -->
<g fill="context-fill white">
  <path d="M0 0.463318C0 0.185301 0.185367 0 0.463418 0H5.9614C6.33214 0 6.57918 0.123556 6.70254 0.463318L14.6716 18.4402H14.857L22.6718 0.463318C22.7955 0.154429 23.0425 0 23.4132 0H28.8185C29.0966 0 29.2819 0.185301 29.2819 0.463318V31.0425C29.2819 31.3206 29.0966 31.5059 28.8185 31.5059H23.5676C23.2895 31.5059 23.1042 31.3206 23.1042 31.0425V13.313H22.9188L17.0811 26.5947C16.8957 27.0271 16.6177 27.2125 16.2163 27.2125H13.0347C12.6333 27.2125 12.3552 27.0271 12.1699 26.5947L6.33214 13.313H6.14678V31.0425C6.14678 31.3206 5.96141 31.5059 5.68336 31.5059H0.463418C0.185367 31.5059 0 31.3206 0 31.0425V0.463318Z"/>
  <path d="M36.1389 19.9228V0.463318C36.1389 0.185301 36.3243 0 36.6023 0H42.4711C42.7491 0 42.9345 0.185301 42.9345 0.463318V20.1082C42.9345 23.8455 45.0349 25.9769 48.2161 25.9769C51.3667 25.9769 53.4364 23.8455 53.4364 20.1082V0.463318C53.4364 0.185301 53.6214 0 53.8995 0H59.7682C60.0462 0 60.2316 0.185301 60.2316 0.463318V19.9228C60.2316 27.7376 55.2277 32 48.1854 32C41.1428 32 36.1389 27.7376 36.1389 19.9228Z"/>
  <path d="M67.5519 0C67.2739 0 67.0889 0.185301 67.0889 0.463318V31.0118C67.0889 31.2895 67.2739 31.4749 67.5519 31.4749H88.0616C88.3397 31.4749 88.5251 31.2895 88.5251 31.0118V25.8842C88.5251 25.6062 88.3397 25.4208 88.0616 25.4208H74.1621C73.9768 25.4208 73.8841 25.3281 73.8841 25.1431V0.463318C73.8841 0.185301 73.6987 0 73.4207 0H67.5519Z"/>
  <path d="M93.4978 0.463318C93.4978 0.185301 93.6832 0 93.9612 0H99.8299C100.108 0 100.293 0.185301 100.293 0.463318V25.1431C100.293 25.3281 100.386 25.4208 100.571 25.4208H114.471C114.749 25.4208 114.934 25.6062 114.934 25.8842V31.0118C114.934 31.2895 114.749 31.4749 114.471 31.4749H93.9612C93.6832 31.4749 93.4978 31.2895 93.4978 31.0118V0.463318Z"/>
  <path d="M124.077 31.0118C124.17 31.2895 124.355 31.4749 124.664 31.4749H130.008C130.286 31.4749 130.471 31.2895 130.563 31.0118L140.571 0.494189C140.664 0.185334 140.478 0 140.2 0H134.239C133.93 0 133.745 0.154429 133.652 0.463318L127.536 21.1274H127.413L121.112 0.463318C121.019 0.123556 120.803 0 120.494 0H114.471C114.162 0 113.977 0.154428 114.069 0.494189L124.077 31.0118Z"/>
  <path fill-rule="evenodd" clip-rule="evenodd" d="M151.691 0.463318C151.783 0.185301 151.969 0 152.308 0H158.146C158.455 0 158.641 0.185301 158.733 0.463318L169.389 31.0425C169.482 31.3206 169.389 31.5059 169.08 31.5059H163.057C162.749 31.5059 162.532 31.3516 162.44 31.0425L160.648 25.5445H149.621L147.861 31.0425C147.768 31.3516 147.583 31.5059 147.243 31.5059H141.189C140.88 31.5059 140.787 31.3206 140.88 31.0425L151.691 0.463318ZM158.764 19.7375L155.212 8.71047H155.088L151.536 19.7375H158.764Z"/>
  <path fill-rule="evenodd" clip-rule="evenodd" d="M174.424 0C174.146 0 173.961 0.185301 173.961 0.463318V30.9808C173.961 31.2589 174.146 31.4442 174.424 31.4442H186.131C191.629 31.4442 195.49 29.0965 197.003 24.3706C197.559 22.61 197.837 20.8497 197.837 15.7221C197.837 10.5948 197.559 8.83416 197.003 7.07334C195.49 2.34749 191.629 0 186.131 0H174.424ZM184.617 25.4208H181.065C180.88 25.4208 180.787 25.3281 180.787 25.1738V6.36292C180.787 6.17758 180.88 6.0849 181.065 6.0849H184.617C187.768 6.0849 189.683 7.01157 190.455 9.54463C190.795 10.4711 190.98 11.6757 190.98 15.7531C190.98 19.8301 190.764 21.0347 190.455 21.9615C189.652 24.4943 187.768 25.4208 184.617 25.4208Z"/>
  <path fill-rule="evenodd" clip-rule="evenodd" d="M270.814 30.0235C272.822 31.3412 275.112 32 277.683 32C280.288 32 282.578 31.3412 284.553 30.0235C286.532 28.7059 288.083 26.8391 289.213 24.4236C290.343 22.008 290.906 19.153 290.906 15.8589C290.906 12.5648 290.343 9.74129 289.213 7.3882C288.083 5.00388 286.532 3.18431 284.553 1.9294C282.578 0.643111 280.288 0 277.683 0C275.112 0 272.822 0.643111 270.814 1.9294C268.835 3.18431 267.284 5.00388 266.154 7.3882C265.057 9.74129 264.507 12.5648 264.507 15.8589C264.507 19.153 265.057 22.008 266.154 24.4236C267.284 26.8391 268.835 28.7059 270.814 30.0235ZM282.482 26.9647C281.133 28 279.536 28.5177 277.683 28.5177C275.864 28.5177 274.263 28 272.885 26.9647C271.503 25.9294 270.436 24.4706 269.684 22.5883C268.931 20.6745 268.553 18.4316 268.553 15.8589C268.553 13.3177 268.931 11.1216 269.684 9.2707C270.436 7.41954 271.503 5.99211 272.885 4.98821C274.263 3.95292 275.864 3.43527 277.683 3.43527C279.536 3.43527 281.133 3.95292 282.482 4.98821C283.864 5.99211 284.931 7.41954 285.683 9.2707C286.436 11.1216 286.814 13.3177 286.814 15.8589C286.814 18.4316 286.436 20.6745 285.683 22.5883C284.931 24.4706 283.864 25.9294 282.482 26.9647Z"/>
  <path fill-rule="evenodd" clip-rule="evenodd" d="M211.838 31.435V0.564453H221.014C223.085 0.564453 224.92 0.815422 226.519 1.31739C228.119 1.81936 229.359 2.63503 230.237 3.76444C231.148 4.86246 231.602 6.3056 231.602 8.09382C231.602 9.69398 231.211 11.1057 230.426 12.3293C229.674 13.5213 228.56 14.3528 227.086 14.8234V15.0116C229.031 15.3566 230.569 16.141 231.695 17.3645C232.825 18.5566 233.392 20.188 233.392 22.2586C233.392 24.3292 232.888 26.0389 231.884 27.388C230.913 28.7371 229.548 29.7565 227.791 30.4468C226.035 31.1056 223.995 31.435 221.673 31.435H211.838ZM215.744 13.694H220.308C222.944 13.694 224.842 13.239 226.002 12.3293C227.162 11.4196 227.745 10.1801 227.745 8.61147C227.745 6.79186 227.132 5.52128 225.909 4.79973C224.685 4.04679 222.881 3.67032 220.497 3.67032H215.744V13.694ZM215.744 28.3292H221.108C223.775 28.3292 225.846 27.843 227.321 26.8704C228.796 25.8666 229.531 24.3292 229.531 22.2586C229.531 20.3448 228.809 18.9489 227.367 18.0704C225.926 17.1607 223.838 16.7057 221.108 16.7057H215.744V28.3292Z"/>
  <path fill-rule="evenodd" clip-rule="evenodd" d="M239.503 31.4353V0.564697H249.15C251.251 0.564697 253.12 0.847049 254.751 1.41175C256.381 1.94507 257.65 2.85486 258.562 4.14115C259.503 5.39605 259.973 7.09016 259.973 9.22364C259.973 11.2942 259.503 13.0039 258.562 14.353C257.65 15.7021 256.381 16.7215 254.751 17.4118C254.205 17.6321 253.633 17.8156 253.035 17.9623L260.868 31.4353H256.444L249.015 18.4001H243.41V31.4353H239.503ZM243.41 15.2001H248.587C251.002 15.2001 252.852 14.7139 254.137 13.7413C255.423 12.7375 256.066 11.2316 256.066 9.22364C256.066 7.21563 255.423 5.80387 254.137 4.9882C252.852 4.14115 251.002 3.71762 248.587 3.71762H243.41V15.2001Z"/>
  <path d="M300.517 31.4353L294.117 0.564697H298.303L301.458 17.3648C301.773 19.0274 302.068 20.6904 302.353 22.353C302.634 24.0156 302.899 25.7256 303.151 27.4824H303.34C303.655 25.7256 303.983 24.0156 304.328 22.353C304.517 21.5217 304.705 20.6903 304.893 19.8589C305.081 19.0275 305.269 18.1961 305.458 17.3648L309.647 0.564697H313.597L317.647 17.3648C318.021 18.9962 318.399 20.6589 318.773 22.353C319.151 24.0156 319.512 25.7256 319.857 27.4824H320.046C320.298 25.7256 320.563 24.0156 320.845 22.353C320.986 21.5217 321.127 20.6903 321.269 19.8589C321.411 19.0275 321.552 18.1961 321.693 17.3648L324.941 0.564697H328.941L322.492 31.4353H317.458L313.034 12.8942C312.908 12.3131 312.782 11.732 312.657 11.151C312.532 10.5713 312.407 9.99164 312.281 9.41187C312.063 8.21957 311.841 6.96466 311.622 5.64702H311.433C311.244 6.96466 311.025 8.21957 310.773 9.41187C310.555 10.5728 310.319 11.7333 310.068 12.8942L305.551 31.4353H300.517Z"/>
  <path d="M336.53 30.7765C338.349 31.592 340.358 32 342.551 32C344.719 32 346.585 31.6079 348.152 30.8235C349.753 30.0391 350.959 28.9882 351.778 27.6706C352.623 26.3215 353.047 24.8315 353.047 23.2C353.047 21.6942 352.765 20.4236 352.198 19.3883C351.665 18.353 350.913 17.4904 349.942 16.8001C349.001 16.1098 347.917 15.498 346.694 14.9648L342.316 13.0824C341.501 12.706 340.686 12.3139 339.87 11.906C339.085 11.498 338.442 10.9804 337.942 10.353C337.438 9.72571 337.189 8.92555 337.189 7.9529C337.189 6.57253 337.706 5.47447 338.74 4.6588C339.807 3.84313 341.203 3.43527 342.929 3.43527C344.308 3.43527 345.58 3.70195 346.74 4.23527C347.9 4.73724 348.967 5.41173 349.942 6.25879L352.059 3.71763C350.992 2.6196 349.673 1.72549 348.106 1.03529C346.538 0.345085 344.812 0 342.929 0C341.047 0 339.367 0.36076 337.895 1.08235C336.45 1.77255 335.307 2.74507 334.459 3.99998C333.644 5.2235 333.236 6.61958 333.236 8.18819C333.236 9.69423 333.547 10.9648 334.177 12.0001C334.803 13.0039 335.589 13.8354 336.53 14.4942C337.501 15.153 338.489 15.7022 339.493 16.1413L343.917 18.0707C344.891 18.5098 345.753 18.9492 346.505 19.3883C347.29 19.8274 347.9 20.361 348.341 20.9883C348.812 21.6156 349.047 22.4627 349.047 23.5295C349.047 25.0353 348.483 26.2589 347.353 27.2C346.223 28.1097 344.639 28.5647 342.601 28.5647C340.967 28.5647 339.383 28.2353 337.846 27.5765C336.341 26.9177 335.039 26.008 333.942 24.8471L331.728 27.3883C333.11 28.8 334.711 29.9294 336.53 30.7765Z"/>
  <path d="M359.125 31.4353V0.564697H376.914V3.8588H363.032V13.553H374.75V16.8942H363.032V28.0941H377.385V31.4353H359.125Z"/>
  <path fill-rule="evenodd" clip-rule="evenodd" d="M383.943 0.564697V31.4353H387.847V18.4001H393.451L400.884 31.4353H405.305L397.472 17.9624C398.07 17.8158 398.642 17.6322 399.187 17.4118C400.821 16.7215 402.09 15.7021 403.002 14.353C403.943 13.0039 404.413 11.2942 404.413 9.22364C404.413 7.09016 403.943 5.39605 403.002 4.14115C402.09 2.85486 400.821 1.94507 399.187 1.41175C397.557 0.847049 395.691 0.564697 393.59 0.564697H383.943ZM393.023 15.2001H387.847V3.71762H393.023C395.439 3.71762 397.292 4.14115 398.577 4.9882C399.863 5.80387 400.506 7.21563 400.506 9.22364C400.506 11.2316 399.863 12.7375 398.577 13.7413C397.292 14.7139 395.439 15.2001 393.023 15.2001Z"/>
</g>
<g fill="context-fill #87FFD1">
  <path fill-rule="evenodd" clip-rule="evenodd" d="M415.513 31.1829C415.41 31.5055 415.651 31.8353 415.99 31.8353H421.422C421.647 31.8353 421.845 31.6848 421.904 31.4676L424.012 23.7843H434.193L436.301 31.4676C436.361 31.6848 436.558 31.8353 436.783 31.8353H442.459C442.797 31.8353 443.038 31.5055 442.935 31.1829L433.118 0.512381C433.052 0.305304 432.86 0.164795 432.642 0.164795H425.806C425.589 0.164795 425.396 0.305306 425.33 0.512383L415.513 31.1829ZM432.823 18.7888L431.892 15.3938C431.407 13.7448 430.938 12.0311 430.485 10.2528C430.072 8.50678 429.644 6.80751 429.2 5.15499C429.186 5.10087 429.137 5.0633 429.081 5.0633C429.023 5.0633 428.973 5.10336 428.96 5.15983C428.578 6.84252 428.165 8.55634 427.721 10.3013C427.268 12.0473 426.799 13.7448 426.314 15.3938L425.383 18.7888H432.823Z"/>
  <path d="M447.802 31.8353C447.526 31.8353 447.302 31.6114 447.302 31.3353V0.664794C447.302 0.388652 447.526 0.164795 447.802 0.164795H453.204C453.48 0.164795 453.704 0.388653 453.704 0.664795V25.9518C453.704 26.2279 453.928 26.4518 454.204 26.4518H466.008C466.284 26.4518 466.508 26.6757 466.508 26.9518V31.3353C466.508 31.6114 466.284 31.8353 466.008 31.8353H447.802Z"/>
  <path fill-rule="evenodd" clip-rule="evenodd" d="M472.526 31.3353C472.526 31.6114 472.75 31.8353 473.026 31.8353H478.428C478.704 31.8353 478.928 31.6114 478.928 31.3353V21.1318C478.928 20.8557 479.152 20.6318 479.428 20.6318H483.147C485.411 20.6318 487.464 20.26 489.307 19.5163C491.15 18.7726 492.621 17.6248 493.72 16.0728C494.82 14.5208 495.369 12.5485 495.369 10.1558C495.369 7.6338 494.82 5.66146 493.72 4.2388C492.621 2.7838 491.134 1.74913 489.258 1.1348C487.383 0.48813 485.281 0.164795 482.953 0.164795H473.026C472.75 0.164795 472.526 0.388652 472.526 0.664794V31.3353ZM479.428 15.5393C479.152 15.5393 478.928 15.3154 478.928 15.0393V5.7573C478.928 5.48115 479.152 5.2573 479.428 5.2573H482.517C484.683 5.2573 486.316 5.61296 487.415 6.3243C488.547 7.03563 489.113 8.3128 489.113 10.1558C489.113 11.9341 488.579 13.276 487.512 14.1813C486.478 15.0866 484.877 15.5393 482.711 15.5393H479.428Z"/>
  <path d="M502.086 31.8353C501.81 31.8353 501.586 31.6114 501.586 31.3353V0.664794C501.586 0.388652 501.81 0.164795 502.086 0.164795H507.488C507.764 0.164795 507.988 0.388653 507.988 0.664795V12.1293C507.988 12.4054 508.212 12.6293 508.488 12.6293H519.37C519.647 12.6293 519.87 12.4054 519.87 12.1293V0.664795C519.87 0.388653 520.094 0.164795 520.37 0.164795H525.724C526 0.164795 526.224 0.388653 526.224 0.664795V31.3353C526.224 31.6114 526 31.8353 525.724 31.8353H520.37C520.094 31.8353 519.87 31.6114 519.87 31.3353V18.7068C519.87 18.4307 519.647 18.2068 519.37 18.2068H508.488C508.212 18.2068 507.988 18.4307 507.988 18.7068V31.3353C507.988 31.6114 507.764 31.8353 507.488 31.8353H502.086Z"/>
  <path fill-rule="evenodd" clip-rule="evenodd" d="M531.093 31.8353C530.754 31.8353 530.514 31.5055 530.617 31.1829L540.433 0.512383C540.5 0.305306 540.692 0.164795 540.91 0.164795H547.746C547.963 0.164795 548.156 0.305304 548.222 0.512381L558.038 31.1829C558.142 31.5055 557.901 31.8353 557.562 31.8353H551.887C551.662 31.8353 551.464 31.6848 551.405 31.4676L549.297 23.7843H539.116L537.008 31.4676C536.948 31.6848 536.751 31.8353 536.526 31.8353H531.093ZM546.995 15.3938L547.926 18.7888H540.486L541.418 15.3938C541.903 13.7448 542.371 12.0473 542.824 10.3013C543.268 8.55635 543.681 6.84252 544.063 5.15983C544.076 5.10336 544.126 5.0633 544.184 5.0633C544.24 5.0633 544.289 5.10087 544.304 5.15499C544.748 6.80751 545.176 8.50678 545.589 10.2528C546.041 12.0311 546.51 13.7448 546.995 15.3938Z"/>
</g>
</svg>
