<svg width="406" height="32" viewBox="0 0 406 32" fill="none" xmlns="http://www.w3.org/2000/svg">
<!-- NOTE: We use "context-fill white", rather than "white" to allow
   - about:mullvad-browser to set the wordmark to a specified color when using
   - a contrast theme.
   - If context-fill is not set, this will default to white. -->
<g fill="context-fill white">
  <path d="M0 0.463318C0 0.185301 0.185367 0 0.463418 0H5.9614C6.33214 0 6.57918 0.123556 6.70254 0.463318L14.6716 18.4402H14.857L22.6718 0.463318C22.7955 0.154429 23.0425 0 23.4132 0H28.8185C29.0966 0 29.2819 0.185301 29.2819 0.463318V31.0425C29.2819 31.3206 29.0966 31.5059 28.8185 31.5059H23.5676C23.2895 31.5059 23.1042 31.3206 23.1042 31.0425V13.313H22.9188L17.0811 26.5947C16.8957 27.0271 16.6177 27.2125 16.2163 27.2125H13.0347C12.6333 27.2125 12.3552 27.0271 12.1699 26.5947L6.33214 13.313H6.14678V31.0425C6.14678 31.3206 5.96141 31.5059 5.68336 31.5059H0.463418C0.185367 31.5059 0 31.3206 0 31.0425V0.463318Z"/>
  <path d="M36.1389 19.9228V0.463318C36.1389 0.185301 36.3243 0 36.6023 0H42.4711C42.7491 0 42.9345 0.185301 42.9345 0.463318V20.1082C42.9345 23.8455 45.0349 25.9769 48.2161 25.9769C51.3667 25.9769 53.4364 23.8455 53.4364 20.1082V0.463318C53.4364 0.185301 53.6214 0 53.8995 0H59.7682C60.0462 0 60.2316 0.185301 60.2316 0.463318V19.9228C60.2316 27.7376 55.2277 32 48.1854 32C41.1428 32 36.1389 27.7376 36.1389 19.9228Z"/>
  <path d="M67.5519 0C67.2739 0 67.0889 0.185301 67.0889 0.463318V31.0118C67.0889 31.2895 67.2739 31.4749 67.5519 31.4749H88.0616C88.3397 31.4749 88.5251 31.2895 88.5251 31.0118V25.8842C88.5251 25.6062 88.3397 25.4208 88.0616 25.4208H74.1621C73.9768 25.4208 73.8841 25.3281 73.8841 25.1431V0.463318C73.8841 0.185301 73.6987 0 73.4207 0H67.5519Z"/>
  <path d="M93.4978 0.463318C93.4978 0.185301 93.6832 0 93.9612 0H99.8299C100.108 0 100.293 0.185301 100.293 0.463318V25.1431C100.293 25.3281 100.386 25.4208 100.571 25.4208H114.471C114.749 25.4208 114.934 25.6062 114.934 25.8842V31.0118C114.934 31.2895 114.749 31.4749 114.471 31.4749H93.9612C93.6832 31.4749 93.4978 31.2895 93.4978 31.0118V0.463318Z"/>
  <path d="M124.077 31.0118C124.17 31.2895 124.355 31.4749 124.664 31.4749H130.008C130.286 31.4749 130.471 31.2895 130.563 31.0118L140.571 0.494189C140.664 0.185334 140.478 0 140.2 0H134.239C133.93 0 133.745 0.154429 133.652 0.463318L127.536 21.1274H127.413L121.112 0.463318C121.019 0.123556 120.803 0 120.494 0H114.471C114.162 0 113.977 0.154428 114.069 0.494189L124.077 31.0118Z"/>
  <path fill-rule="evenodd" clip-rule="evenodd" d="M151.691 0.463318C151.783 0.185301 151.969 0 152.308 0H158.146C158.455 0 158.641 0.185301 158.733 0.463318L169.389 31.0425C169.482 31.3206 169.389 31.5059 169.08 31.5059H163.057C162.749 31.5059 162.532 31.3516 162.44 31.0425L160.648 25.5445H149.621L147.861 31.0425C147.768 31.3516 147.583 31.5059 147.243 31.5059H141.189C140.88 31.5059 140.787 31.3206 140.88 31.0425L151.691 0.463318ZM158.764 19.7375L155.212 8.71047H155.088L151.536 19.7375H158.764Z"/>
  <path fill-rule="evenodd" clip-rule="evenodd" d="M174.424 0C174.146 0 173.961 0.185301 173.961 0.463318V30.9808C173.961 31.2589 174.146 31.4442 174.424 31.4442H186.131C191.629 31.4442 195.49 29.0965 197.003 24.3706C197.559 22.61 197.837 20.8497 197.837 15.7221C197.837 10.5948 197.559 8.83416 197.003 7.07334C195.49 2.34749 191.629 0 186.131 0H174.424ZM184.617 25.4208H181.065C180.88 25.4208 180.787 25.3281 180.787 25.1738V6.36292C180.787 6.17758 180.88 6.0849 181.065 6.0849H184.617C187.768 6.0849 189.683 7.01157 190.455 9.54463C190.795 10.4711 190.98 11.6757 190.98 15.7531C190.98 19.8301 190.764 21.0347 190.455 21.9615C189.652 24.4943 187.768 25.4208 184.617 25.4208Z"/>
  <path fill-rule="evenodd" clip-rule="evenodd" d="M270.813 30.0235C272.821 31.3412 275.111 32 277.683 32C280.288 32 282.578 31.3412 284.553 30.0235C286.531 28.7059 288.082 26.8391 289.212 24.4236C290.342 22.008 290.906 19.153 290.906 15.8589C290.906 12.5648 290.342 9.74129 289.212 7.3882C288.082 5.00388 286.531 3.18431 284.553 1.9294C282.578 0.643111 280.288 0 277.683 0C275.111 0 272.821 0.643111 270.813 1.9294C268.835 3.18431 267.284 5.00388 266.154 7.3882C265.057 9.74129 264.507 12.5648 264.507 15.8589C264.507 19.153 265.057 22.008 266.154 24.4236C267.284 26.8391 268.835 28.7059 270.813 30.0235ZM282.482 26.9647C281.133 28 279.536 28.5177 277.683 28.5177C275.864 28.5177 274.263 28 272.884 26.9647C271.502 25.9294 270.435 24.4706 269.683 22.5883C268.931 20.6745 268.553 18.4316 268.553 15.8589C268.553 13.3177 268.931 11.1216 269.683 9.2707C270.435 7.41954 271.502 5.99211 272.884 4.98821C274.263 3.95292 275.864 3.43527 277.683 3.43527C279.536 3.43527 281.133 3.95292 282.482 4.98821C283.864 5.99211 284.931 7.41954 285.683 9.2707C286.435 11.1216 286.813 13.3177 286.813 15.8589C286.813 18.4316 286.435 20.6745 285.683 22.5883C284.931 24.4706 283.864 25.9294 282.482 26.9647Z"/>
  <path fill-rule="evenodd" clip-rule="evenodd" d="M211.837 31.435V0.564453H221.014C223.084 0.564453 224.92 0.815422 226.518 1.31739C228.119 1.81936 229.358 2.63503 230.237 3.76444C231.148 4.86246 231.602 6.3056 231.602 8.09382C231.602 9.69398 231.211 11.1057 230.426 12.3293C229.673 13.5213 228.56 14.3528 227.085 14.8234V15.0116C229.03 15.3566 230.568 16.141 231.695 17.3645C232.825 18.5566 233.392 20.188 233.392 22.2586C233.392 24.3292 232.888 26.0389 231.884 27.388C230.913 28.7371 229.547 29.7565 227.791 30.4468C226.034 31.1056 223.994 31.435 221.673 31.435H211.837ZM215.743 13.694H220.308C222.943 13.694 224.841 13.239 226.001 12.3293C227.161 11.4196 227.745 10.1801 227.745 8.61147C227.745 6.79186 227.131 5.52128 225.909 4.79973C224.684 4.04679 222.88 3.67032 220.496 3.67032H215.743V13.694ZM215.743 28.3292H221.108C223.774 28.3292 225.846 27.843 227.32 26.8704C228.795 25.8666 229.531 24.3292 229.531 22.2586C229.531 20.3448 228.808 18.9489 227.367 18.0704C225.925 17.1607 223.837 16.7057 221.108 16.7057H215.743V28.3292Z"/>
  <path fill-rule="evenodd" clip-rule="evenodd" d="M239.502 31.4353V0.564697H249.149C251.251 0.564697 253.12 0.847049 254.75 1.41175C256.381 1.94507 257.65 2.85486 258.561 4.14115C259.502 5.39605 259.973 7.09016 259.973 9.22364C259.973 11.2942 259.502 13.0039 258.561 14.353C257.65 15.7021 256.381 16.7215 254.75 17.4118C254.205 17.6321 253.633 17.8156 253.035 17.9623L260.868 31.4353H256.444L249.014 18.4001H243.41V31.4353H239.502ZM243.41 15.2001H248.586C251.002 15.2001 252.851 14.7139 254.137 13.7413C255.423 12.7375 256.066 11.2316 256.066 9.22364C256.066 7.21563 255.423 5.80387 254.137 4.9882C252.851 4.14115 251.002 3.71762 248.586 3.71762H243.41V15.2001Z"/>
  <path d="M300.516 31.4353L294.117 0.564697H298.302L301.457 17.3648C301.772 19.0274 302.067 20.6904 302.352 22.353C302.634 24.0156 302.899 25.7256 303.151 27.4824H303.34C303.655 25.7256 303.983 24.0156 304.327 22.353C304.516 21.5217 304.704 20.6903 304.892 19.8589C305.08 19.0275 305.268 18.1961 305.457 17.3648L309.646 0.564697H313.597L317.646 17.3648C318.021 18.9962 318.398 20.6589 318.773 22.353C319.151 24.0156 319.512 25.7256 319.857 27.4824H320.046C320.297 25.7256 320.562 24.0156 320.844 22.353C320.985 21.5217 321.127 20.6903 321.268 19.8589C321.41 19.0275 321.552 18.1961 321.693 17.3648L324.94 0.564697H328.94L322.491 31.4353H317.457L313.033 12.8942C312.907 12.3131 312.782 11.732 312.657 11.151C312.532 10.5713 312.407 9.99164 312.281 9.41187C312.062 8.21957 311.84 6.96466 311.621 5.64702H311.433C311.244 6.96466 311.025 8.21957 310.773 9.41187C310.554 10.5728 310.319 11.7333 310.067 12.8942L305.55 31.4353H300.516Z"/>
  <path d="M336.529 30.7765C338.349 31.592 340.357 32 342.551 32C344.718 32 346.584 31.6079 348.152 30.8235C349.752 30.0391 350.959 28.9882 351.777 27.6706C352.622 26.3215 353.046 24.8315 353.046 23.2C353.046 21.6942 352.765 20.4236 352.198 19.3883C351.664 18.353 350.912 17.4904 349.941 16.8001C349 16.1098 347.916 15.498 346.693 14.9648L342.316 13.0824C341.5 12.706 340.685 12.3139 339.87 11.906C339.085 11.498 338.442 10.9804 337.941 10.353C337.438 9.72571 337.189 8.92555 337.189 7.9529C337.189 6.57253 337.706 5.47447 338.74 4.6588C339.807 3.84313 341.202 3.43527 342.929 3.43527C344.307 3.43527 345.58 3.70195 346.74 4.23527C347.9 4.73724 348.967 5.41173 349.941 6.25879L352.059 3.71763C350.992 2.6196 349.673 1.72549 348.105 1.03529C346.538 0.345085 344.811 0 342.929 0C341.046 0 339.366 0.36076 337.895 1.08235C336.45 1.77255 335.307 2.74507 334.458 3.99998C333.643 5.2235 333.235 6.61958 333.235 8.18819C333.235 9.69423 333.547 10.9648 334.177 12.0001C334.803 13.0039 335.588 13.8354 336.529 14.4942C337.5 15.153 338.488 15.7022 339.492 16.1413L343.916 18.0707C344.891 18.5098 345.752 18.9492 346.505 19.3883C347.29 19.8274 347.9 20.361 348.341 20.9883C348.811 21.6156 349.046 22.4627 349.046 23.5295C349.046 25.0353 348.483 26.2589 347.353 27.2C346.223 28.1097 344.639 28.5647 342.601 28.5647C340.967 28.5647 339.383 28.2353 337.845 27.5765C336.341 26.9177 335.038 26.008 333.941 24.8471L331.728 27.3883C333.109 28.8 334.71 29.9294 336.529 30.7765Z"/>
  <path d="M359.124 31.4353V0.564697H376.914V3.8588H363.031V13.553H374.749V16.8942H363.031V28.0941H377.384V31.4353H359.124Z"/>
  <path fill-rule="evenodd" clip-rule="evenodd" d="M383.942 0.564697V31.4353H387.846V18.4001H393.451L400.883 31.4353H405.304L397.471 17.9624C398.069 17.8158 398.641 17.6322 399.187 17.4118C400.82 16.7215 402.09 15.7021 403.001 14.353C403.942 13.0039 404.413 11.2942 404.413 9.22364C404.413 7.09016 403.942 5.39605 403.001 4.14115C402.09 2.85486 400.82 1.94507 399.187 1.41175C397.556 0.847049 395.69 0.564697 393.589 0.564697H383.942ZM393.023 15.2001H387.846V3.71762H393.023C395.439 3.71762 397.291 4.14115 398.577 4.9882C399.863 5.80387 400.506 7.21563 400.506 9.22364C400.506 11.2316 399.863 12.7375 398.577 13.7413C397.291 14.7139 395.439 15.2001 393.023 15.2001Z"/>
</g>
</svg>
